<svg width="181" height="187" viewBox="0 0 181 187" fill="none" xmlns="http://www.w3.org/2000/svg">
<path d="M22.0683 22.7776C19.5317 25.3383 16.5301 26.6186 13.0634 26.6186C9.59675 26.6186 6.51057 25.3383 3.80488 22.7776C1.26829 20.0463 0 16.9735 0 13.5593C0 10.0597 1.26829 7.02965 3.80488 4.469C6.42602 1.823 9.51219 0.5 13.0634 0.5C16.5301 0.5 19.5317 1.823 22.0683 4.469C24.6894 7.02965 26 10.0597 26 13.5593C26 17.0588 24.6894 20.1316 22.0683 22.7776ZM24.7317 92.1483H1.26829V31.4838H24.7317V92.1483Z" fill="#1A1A1A"/>
<path d="M70.6646 29.708C77.8325 29.708 83.465 32.1826 87.561 37.1318C91.7423 42.0811 93.8335 49.2066 93.8335 58.5078V97.9502H93.8237V126L86.0562 123.99C85.1407 123.753 84.438 124.802 85.0054 125.559L98.0933 143.009C99.6933 145.142 102.894 145.142 104.494 143.009L117.582 125.559C118.149 124.802 117.446 123.753 116.531 123.99L109.039 125.929V121.44C109.039 108.186 119.784 97.4416 133.039 97.4414H134.144V97.4287H143.104V86.5479L166.784 79.5088V97.4287H180.224V119.956H166.784V133.78C166.784 135.914 167.296 137.493 168.32 138.517C169.344 139.541 170.838 140.138 172.8 140.309C174.848 140.394 177.323 140.351 180.224 140.181V161.429C166.912 163.306 157.398 162.196 151.68 158.101C145.963 153.919 143.104 146.239 143.104 135.061V119.956H134.144V161.441H110.464V155.169C106.539 160.545 100.821 163.233 93.312 163.233C86.144 163.233 80.4689 160.758 76.2876 155.809C72.9316 151.753 70.9514 146.237 70.3452 139.26C69.084 144.713 66.7136 149.455 63.229 153.484C57.7677 159.884 50.7275 163.084 42.1089 163.084C34.7702 163.084 29.0525 160.567 24.9565 155.532V186.892H1.27686V97.292H24.9565V103.052C29.0525 98.0171 34.7702 95.5 42.1089 95.5C50.7275 95.5 57.7677 98.6997 63.229 105.1C66.5358 108.923 68.8395 113.389 70.144 118.495V97.4414H70.1528V67.2529L76.6509 68.9336C77.5662 69.1702 78.268 68.1217 77.7007 67.3652L68.9692 55.7227C68.7182 55.2915 68.4271 54.9034 68.0962 54.5586L64.6138 49.915C63.0138 47.7817 59.8134 47.7817 58.2134 49.915L45.1255 67.3652C44.5581 68.1217 45.2608 69.1704 46.1763 68.9336L53.5132 67.0352V72.2119C53.5132 83.2575 44.5588 92.2118 33.5132 92.2119H29.8335V31.5H53.5132V37.7725C57.5238 32.3966 63.2408 29.7081 70.6646 29.708ZM36.3491 117.26C32.9358 117.26 30.1621 118.412 28.0288 120.716C25.9808 123.02 24.9565 125.879 24.9565 129.292C24.9565 132.705 25.9808 135.564 28.0288 137.868C30.1621 140.172 32.9358 141.324 36.3491 141.324C39.7622 141.324 42.4926 140.172 44.5405 137.868C46.6739 135.564 47.7407 132.705 47.7407 129.292C47.7407 125.879 46.6739 123.02 44.5405 120.716C42.4926 118.412 39.7622 117.26 36.3491 117.26Z" fill="#1A1A1A"/>
</svg>
